<?xml version="1.0" encoding="utf-8"?>
<!-- Generator: Adobe Illustrator 23.0.3, SVG Export Plug-In . SVG Version: 6.00 Build 0)  -->
<svg version="1.1" id="Layer_1" xmlns="http://www.w3.org/2000/svg" xmlns:xlink="http://www.w3.org/1999/xlink" x="0px" y="0px"
	 viewBox="0 0 622 119" style="enable-background:new 0 0 622 119;" xml:space="preserve">
<style type="text/css">
	.st0{fill:#55BD93;}
	.st1{fill:none;stroke:#55BD93;stroke-width:9;}
</style>
<g>
	<g>
		<g>
			<path class="st0" d="M31.2,83.1c-0.9,0-1.6-0.2-2-0.7s-0.7-1-0.8-1.7l-5.4-51.4c0-0.7,0.1-1.2,0.5-1.6c0.4-0.4,0.9-0.6,1.4-0.6
				h9.6c0.8,0,1.5,0.2,1.8,0.7s0.6,0.9,0.6,1.4l3.4,37l19.2-37c0.2-0.5,0.6-1,1.1-1.4c0.5-0.5,1.2-0.7,2.1-0.7h10.7
				c0.6,0,1.1,0.3,1.2,0.8c0.2,0.5,0.2,1-0.1,1.6L47.4,80.7c-0.3,0.6-0.8,1.2-1.4,1.7s-1.4,0.7-2.4,0.7
				C43.7,83.1,31.2,83.1,31.2,83.1z"/>
			<path class="st0" d="M72.7,83.1c-0.6,0-1-0.2-1.4-0.6c-0.3-0.4-0.4-0.8-0.3-1.4l11.1-52c0.1-0.6,0.4-1.1,0.9-1.4
				c0.5-0.4,1-0.6,1.5-0.6h10.8c0.5,0,1,0.2,1.3,0.6c0.3,0.4,0.4,0.9,0.3,1.4l-11.1,52c-0.1,0.6-0.4,1.1-0.8,1.4s-0.9,0.6-1.5,0.6
				H72.7z"/>
			<path class="st0" d="M98.6,83.1c-0.5,0-1-0.2-1.3-0.6c-0.3-0.4-0.4-0.8-0.3-1.4l11-52c0.1-0.6,0.4-1.1,0.8-1.4s1-0.6,1.6-0.6h8.5
				c0.8,0,1.4,0.2,1.8,0.6c0.3,0.4,0.6,0.7,0.6,1l13,31l6.5-30.5c0.1-0.6,0.4-1.1,0.9-1.4c0.5-0.4,1-0.6,1.5-0.6h9.6
				c0.6,0,1,0.2,1.3,0.6c0.3,0.4,0.4,0.9,0.3,1.4l-11,52c-0.1,0.5-0.4,1-0.8,1.4s-1,0.6-1.6,0.6h-8.5c-0.9,0-1.4-0.2-1.8-0.6
				c-0.3-0.4-0.5-0.7-0.6-0.9l-13.2-29.8l-6.3,29.4c-0.1,0.6-0.4,1.1-0.8,1.4s-1,0.6-1.6,0.6H98.6z"/>
			<path class="st0" d="M168.4,83.1c-0.6,0-1-0.2-1.4-0.6s-0.4-0.8-0.3-1.4l8.9-41.4h-14.2c-0.5,0-1-0.2-1.3-0.6s-0.4-0.9-0.3-1.4
				l1.8-8.6c0.1-0.6,0.4-1.1,0.8-1.4s1-0.6,1.6-0.6h43c0.6,0,1,0.2,1.3,0.6c0.3,0.4,0.4,0.9,0.3,1.4l-1.8,8.6
				c-0.1,0.5-0.4,1-0.8,1.4s-1,0.6-1.6,0.6h-14.2l-8.8,41.4c-0.1,0.6-0.4,1.1-0.8,1.4s-1,0.6-1.6,0.6H168.4z"/>
			<path class="st0" d="M206.3,83.1c-0.5,0-1-0.2-1.3-0.6c-0.3-0.4-0.4-0.8-0.3-1.4l11-52c0.1-0.6,0.4-1.1,0.9-1.4
				c0.5-0.4,1-0.6,1.5-0.6h37.4c0.6,0,1,0.2,1.3,0.6c0.3,0.4,0.4,0.9,0.3,1.4l-1.5,7.5c-0.2,0.6-0.5,1.1-0.9,1.4s-1,0.6-1.6,0.6
				h-25.5l-2.3,10.8h23.7c0.6,0,1,0.2,1.4,0.6c0.3,0.4,0.4,0.9,0.3,1.5l-1.5,7c-0.1,0.5-0.4,1-0.8,1.4s-1,0.6-1.6,0.6h-23.8
				l-2.3,11.1h26.1c0.6,0,1,0.2,1.3,0.6c0.3,0.4,0.4,0.8,0.3,1.4l-1.6,7.5c-0.1,0.6-0.4,1.1-0.8,1.4s-1,0.6-1.6,0.6
				C244.3,83.1,206.3,83.1,206.3,83.1z"/>
			<path class="st0" d="M258.5,83.1c-0.6,0-1-0.2-1.3-0.6c-0.3-0.4-0.4-0.8-0.3-1.4l11-52c0.1-0.6,0.4-1.1,0.9-1.4s1-0.6,1.6-0.6
				h21.8c6.9,0,12,1.6,15.2,4.8s4.3,7.7,3.1,13.5c-0.8,3.8-2.4,7-4.8,9.6s-5.2,4.6-8.4,5.9l6.8,19.7c0,0.2,0.1,0.3,0.1,0.4
				s0,0.3-0.1,0.5c0,0.4-0.3,0.8-0.7,1.2c-0.4,0.3-0.9,0.5-1.4,0.5h-10.6c-1,0-1.7-0.3-2-0.8s-0.6-1-0.8-1.4l-5.4-17.6H275
				l-3.8,17.8c-0.1,0.6-0.4,1.1-0.9,1.4s-1,0.6-1.6,0.6H258.5z M277.4,52h9.3c2.5,0,4.5-0.6,6-1.8s2.5-2.9,3-5
				c0.4-2.1,0.2-3.8-0.8-5c-0.9-1.3-2.7-1.9-5.3-1.9h-9.2L277.4,52z"/>
			<path class="st0" d="M307.6,83.1c-0.6,0-1.1-0.3-1.4-0.8c-0.3-0.5-0.2-1.1,0.1-1.6L336,29.3c0.3-0.6,0.8-1.1,1.4-1.6
				c0.6-0.5,1.3-0.7,2.2-0.7h12.3c0.9,0,1.6,0.2,2,0.7s0.6,1,0.7,1.6l7.8,51.4c0.2,0.8,0,1.3-0.4,1.8s-0.9,0.6-1.4,0.6h-9.7
				c-0.8,0-1.4-0.2-1.7-0.6c-0.4-0.4-0.6-0.8-0.7-1.3l-1.4-8h-21.4l-4.8,8.2c-0.3,0.4-0.6,0.8-1.1,1.1s-1.1,0.6-1.9,0.6
				C318,83.1,307.6,83.1,307.6,83.1z M331.4,61.7h14.9l-3-21.1L331.4,61.7z"/>
			<path class="st0" d="M392.2,83.9c-3.6,0-6.9-0.4-9.8-1.4c-2.9-0.9-5.3-2.3-7.2-4.1c-1.9-1.8-3.3-4.1-4-6.8s-0.8-5.8-0.2-9.4
				c0.4-2.2,0.8-4.5,1.4-7c0.6-2.5,1.1-4.9,1.6-7.2c1.2-4.6,3-8.6,5.4-11.8s5.6-5.7,9.3-7.4s8.2-2.5,13.3-2.5c3.4,0,6.6,0.4,9.5,1.3
				s5.4,2.1,7.5,3.8c2,1.7,3.5,3.7,4.5,6.1c0.9,2.4,1.1,5.1,0.5,8.1c-0.1,0.5-0.3,0.9-0.7,1.2s-0.8,0.5-1.2,0.5h-10.9
				c-0.7,0-1.2-0.2-1.6-0.4c-0.4-0.3-0.6-0.8-0.7-1.6c0-2.8-0.7-4.7-2.2-5.8c-1.5-1.1-3.5-1.6-5.9-1.6c-2.9,0-5.5,0.8-7.6,2.4
				c-2.1,1.6-3.6,4.3-4.6,8.1c-1.1,4.4-2.1,8.8-2.9,13.4c-0.7,3.8-0.4,6.5,1,8.1s3.5,2.4,6.4,2.4c2.5,0,4.7-0.5,6.6-1.6
				s3.6-3,4.9-5.8c0.4-0.8,0.9-1.3,1.3-1.6s1-0.4,1.7-0.4h10.9c0.5,0,0.9,0.2,1.1,0.5s0.4,0.7,0.2,1.2c-0.8,3-1.9,5.7-3.5,8
				s-3.5,4.4-5.9,6.1c-2.4,1.7-5.1,3-8.1,3.8C399.4,83.4,396,83.9,392.2,83.9z"/>
			<path class="st0" d="M438.5,83.1c-0.6,0-1-0.2-1.4-0.6c-0.3-0.4-0.4-0.8-0.3-1.4l8.9-41.4h-14.2c-0.5,0-1-0.2-1.3-0.6
				c-0.3-0.4-0.4-0.9-0.3-1.4l1.8-8.6c0.1-0.6,0.4-1.1,0.8-1.4c0.5-0.4,1-0.6,1.6-0.6h43c0.6,0,1,0.2,1.3,0.6
				c0.3,0.4,0.4,0.9,0.3,1.4l-1.8,8.6c-0.1,0.5-0.4,1-0.8,1.4c-0.5,0.4-1,0.6-1.6,0.6h-14.2l-8.8,41.4c-0.1,0.6-0.4,1.1-0.8,1.4
				c-0.5,0.4-1,0.6-1.6,0.6H438.5z"/>
			<path class="st0" d="M476.5,83.1c-0.6,0-1-0.2-1.4-0.6c-0.3-0.4-0.4-0.8-0.3-1.4l11.1-52c0.1-0.6,0.4-1.1,0.9-1.4s1-0.6,1.5-0.6
				h10.8c0.5,0,1,0.2,1.3,0.6c0.3,0.4,0.4,0.9,0.3,1.4l-11.1,52c-0.1,0.6-0.4,1.1-0.8,1.4s-1,0.6-1.5,0.6H476.5z"/>
			<path class="st0" d="M516.3,83.1c-0.9,0-1.6-0.2-2-0.7c-0.5-0.5-0.7-1-0.8-1.7l-5.4-51.4c0-0.7,0.1-1.2,0.5-1.6
				c0.4-0.4,0.9-0.6,1.4-0.6h9.6c0.8,0,1.5,0.2,1.8,0.7c0.4,0.5,0.6,0.9,0.6,1.4l3.4,37l19.2-37c0.2-0.5,0.6-1,1.1-1.4
				c0.5-0.5,1.2-0.7,2.1-0.7h10.7c0.6,0,1,0.3,1.2,0.8s0.2,1-0.1,1.6l-27.2,51.2c-0.3,0.6-0.8,1.2-1.4,1.7c-0.6,0.5-1.4,0.7-2.4,0.7
				C528.8,83.1,516.3,83.1,516.3,83.1z"/>
			<path class="st0" d="M557.8,83.1c-0.5,0-1-0.2-1.3-0.6c-0.3-0.4-0.4-0.8-0.3-1.4l11-52c0.1-0.6,0.4-1.1,0.9-1.4s1-0.6,1.5-0.6
				H607c0.6,0,1,0.2,1.3,0.6c0.3,0.4,0.4,0.9,0.3,1.4l-1.5,7.5c-0.2,0.6-0.5,1.1-0.9,1.4s-1,0.6-1.6,0.6h-25.5l-2.3,10.8h23.7
				c0.6,0,1,0.2,1.4,0.6c0.3,0.4,0.4,0.9,0.3,1.5l-1.5,7c-0.1,0.5-0.4,1-0.8,1.4s-1,0.6-1.6,0.6h-23.8l-2.3,11.1h26.1
				c0.6,0,1,0.2,1.3,0.6c0.3,0.4,0.4,0.8,0.3,1.4l-1.6,7.5c-0.1,0.6-0.4,1.1-0.8,1.4s-1,0.6-1.6,0.6
				C595.8,83.1,557.8,83.1,557.8,83.1z"/>
		</g>
	</g>
	<rect x="4.7" y="5.1" class="st1" width="614" height="109.1"/>
</g>
</svg>
